<svg xmlns:dc="http://purl.org/dc/elements/1.1/" xmlns:cc="http://creativecommons.org/ns#" xmlns:rdf="http://www.w3.org/1999/02/22-rdf-syntax-ns#" xmlns:svg="http://www.w3.org/2000/svg" xmlns="http://www.w3.org/2000/svg" xmlns:sodipodi="http://sodipodi.sourceforge.net/DTD/sodipodi-0.dtd" xmlns:inkscape="http://www.inkscape.org/namespaces/inkscape" version="1.1" id="Capa_1" x="0px" y="0px" width="512px" height="512px" viewBox="0 0 512 512" enable-background="new 0 0 512 512" xml:space="preserve" inkscape:version="0.48.4 r9939">
  <metadata id="metadata3147">
    <rdf:RDF>
      <cc:Work rdf:about="">
        <dc:format>image/svg+xml</dc:format>
        <dc:type rdf:resource="http://purl.org/dc/dcmitype/StillImage"/>
      </cc:Work>
    </rdf:RDF>
  </metadata>
  <defs id="defs3145"/>
  <g id="g3095">
    <path style="fill:#221c1a;fill-rule:evenodd" d="m 281.5 211.3 c -8 0.2 -15.8 4 -23.6 11.7 -7.4 7.4 -15.2 9.1 -24.7 6.5 -3.3 -0.9 -6.6 -2.3 -9.9 -3.1 -20.9 -4.9 -36.8 -1.3 -45.7 22.1 -1.7 4.4 -3 9 -5.2 13.1 -12.2 22.7 -22.5 46.3 -33 69.7 -7.7 17.1 -14.7 34.6 -20.2 52.7 -2.1 6.8 -2.9 13.6 -0.5 20.1 4.7 12.8 13.3 22.9 24.3 31 1.3 1 2.9 2.3 4.5 1.1 1.5 -1.1 1.2 -3.1 0.8 -4.8 -2.2 -10 -4.4 -20 -6.7 -30 -2.7 -11.6 -1.2 -14.2 10.4 -17.8 10.3 -3.2 20.1 -0.5 26.9 7.8 10.3 12.5 10.3 32.5 -6.5 43.7 -3.9 2.6 -8.4 4.5 -10.2 9.4 -1 2.9 -1.3 4.7 2.8 5 5.1 0.4 9.5 2.5 10.1 8.2 0.5 4.8 -2.1 8.2 -6.6 9.9 -4.4 1.7 -10.3 -0.5 -12.3 -4.7 -1.3 -2.6 -1.9 -5.6 -3 -8.3 -0.5 -1.1 -1.6 -2.3 -2.7 -2.5 -2.1 -0.5 -2.7 1.5 -3.5 2.9 -7 12.9 -4.6 29.9 5.5 40.6 8.8 9.3 24.2 10.5 32.9 2.4 0.9 -0.9 1.6 -2.1 0.6 -3.3 -0.5 -0.5 -1.6 -1 -2.2 -0.8 -5.5 1.2 -10.9 3.4 -16.6 1.2 -3.6 -1.4 -7.2 -2.9 -8.2 -7.4 -1 -4.8 0.9 -8.4 4.4 -11.4 2.7 -2.3 5.8 -3.7 9.5 -3.7 2.6 -0 5.3 0.1 7.8 -0.4 9.3 -2.2 12.3 -9.7 7.4 -17.7 -2.5 -4.2 -6.4 -7 -10.5 -9.4 -3 -1.7 -4.5 -2.7 0 -4.3 5.3 -1.9 9.8 -5.4 14.6 -8.3 5.2 -3.2 7.3 -5.8 3.7 -12.1 -5.4 -9.7 -2 -18.2 6.2 -25.1 1.7 -1.4 3.4 -2.7 4.9 -4.2 7.3 -6.8 7 -8.1 -3.1 -11.8 -0.8 -0.3 -1.7 -0.5 -2.3 -1 -2.2 -1.6 -2.2 -3.7 -0.3 -5.4 1.2 -1.1 2.9 -1.9 4.6 -2.3 10.2 -2.6 19 2.7 22.8 14 3 8.9 6 17.9 8 27.1 1.1 4.9 3.7 5.8 7.8 6.8 15.1 3.6 29.8 2 44.9 0.1 0.5 -0.1 8.1 -3.2 10.5 -7.3 -0 -0.1 -0.2 -0.3 -0.2 -0.4 -4 0.4 -6.9 -0.9 -8.6 -5 -1.2 -2.8 -1.7 -5.7 -2.1 -8.6 C 287.4 386.8 285.5 377.1 277 369.5 c -5 -4.4 -4 -8 0.1 -10.5 4.2 -2.6 7.2 -1.9 10.8 3 5.7 7.8 6.9 17.3 8.7 26.4 1.4 7.2 1.9 14.9 2.8 22.2 0.1 0.2 0.1 0.2 0.2 0.4 5 -0.1 8.6 -3.8 13 -5.2 3.4 -1.1 3.9 -2.8 1.3 -5.4 -6.1 -6.2 -7.6 -14.2 -9.1 -22.2 -0.9 -4.6 -1.7 -9.2 -2.6 -13.8 -1.1 -5.9 -9.4 -7.7 -9.3 -13.2 0.1 -5.5 8 -9 6.2 -16 -0.4 -1.4 0.2 -3.5 2.5 -3.5 1.4 0 2.3 1.2 2.6 2.5 1.3 6 4.9 9.7 10.9 11.5 5.8 1.7 6.1 3.9 0.7 7 -3.4 1.9 -3.5 5.7 -3.8 9.2 -0.6 8.3 1.4 16.1 3.8 23.9 1.7 5.6 5.9 8.2 11.9 7.8 4.6 -0.4 9.3 -1.6 13.4 2.2 0.7 0.7 3.4 -0 4.8 -0.7 2.4 -1.2 0.6 -3 -0 -4.3 -5.6 -12.5 -2.1 -22.4 8.8 -30.2 2.1 -1.5 4.1 -3.2 5.7 -5.2 2.5 -2.9 1.9 -5.5 -1.8 -7 -1.6 -0.6 -3.3 -1.1 -5 -1.4 -2.2 -0.4 -4.6 -0.6 -4.5 -3.5 0.1 -3.2 2.6 -4 5.3 -4.5 11.5 -2.2 18.2 0.9 22.7 12 2.9 7.1 4 14.8 6.7 22 2.5 6.6 3.4 13.2 2 20.1 4 1.7 9.6 1.1 10.3 -2 1.7 -7.2 7.5 -7.6 12.3 -10.1 6.8 -3.5 7.6 -8.4 1.3 -12.4 -4.3 -2.7 -9.5 -4.2 -14.2 -6.2 -8.9 -3.8 -12.6 -11.6 -9.5 -19.6 2.6 -6.9 13.4 -11.3 21 -8.4 1 0.4 1.8 1.7 2.3 2.8 0.2 0.5 -0.7 1.6 -1.3 2.1 -1 0.8 -2.2 1.5 -3.4 1.8 -4.1 1.3 -6.9 3.4 -6.7 8.2 0.2 5.3 3.8 7.2 8.1 8.8 6.4 2.4 13.6 3 18.8 8.2 1.7 1.7 2.7 -0.3 3.3 -1.9 2.1 -5.8 2.4 -11.5 0.7 -17.6 -2.1 -7.6 -5 -14.8 -9.5 -21.1 -12.2 -17.2 -25.9 -33.2 -42.5 -46.6 -23.6 -18.9 -47.1 -37.9 -70.6 -57 -8.6 -7 -16.8 -10.5 -24.8 -10.4 z m -5.5 127.5 c 3.4 0.4 5.5 2.4 5.5 5.8 0 3.2 -1.9 5.9 -5.3 5.9 -3.3 -0 -5.5 -2.3 -5.5 -5.8 0 -3.3 1.4 -5.7 5.3 -5.9 z M 238.8 345.9 c 1.4 0.1 2.6 1.4 3.1 2.9 2 6.1 5.7 10.3 12.6 11.3 1.6 0.2 4.5 2.3 1.3 4.4 -7.1 4.6 -6.9 11.4 -5.9 18.3 0.8 5.5 1.8 10.9 3.4 16.2 2 6.6 5.8 8.7 12.6 8 1.7 -0.2 3.4 -0.5 5.1 -0.6 2 -0.1 4.5 -0.9 5.2 2.2 0.4 1.9 -0.6 3.4 -2 4.4 -10.4 7.7 -18.6 8.5 -26.7 -4.3 -3 -4.8 -4 -10.4 -4.8 -15.8 -1.4 -9.3 -2.3 -18.6 -10.7 -25.1 -2.1 -1.6 -2.9 -4.4 -0.1 -6.6 4 -3 4.2 -7.2 3.8 -11.6 -0.2 -2 1.1 -3.6 2.7 -3.8 0.2 -0 0.4 -0 0.6 -0 z" id="path3097" inkscape:connector-curvature="0"/>
    <path clip-rule="evenodd" d="M208.041 71.363c-1.106-21.359 6.11-41.285 22.35-56.637 c15.262-14.429 30.532-19.194 52.898-5.913c23.627 14 38.7 34.7 47 59.948c6.408 19.6 5.3 40.088-2.755 58.7 c-5.345 12.288-12.688 25.622-28.264 29.41c-9.716 2.364-19.489 2.225-29.423-0.198C232.037 147.4 205.4 106 208 71.4 z" id="path3099" fill-rule="evenodd" fill="#F6C507"/>
    <path clip-rule="evenodd" d="M192.777 119.905c0.465 10.844-2.364 25.344-7.889 39.4 c-3.805 9.646-10.013 17.24-18.176 24.037c-18.974 15.801-53.244 9.99-69.13-10.609c-8.995-11.667-16.583-23.537-20.513-37.831 c-7.312-26.6-5.049-52.206 8.42-76.188c8.606-15.328 22.906-24.815 40.712-25.952c12.65-0.807 24.4 4.9 34.4 12.7 C183.303 63.4 192.9 87.4 192.8 119.905z" id="path3101" fill-rule="evenodd" fill="#6879B4"/>
    <path clip-rule="evenodd" d="M128.097 277.351c0.566 8.437-1.574 18.212-4.999 28.1 c-8.718 25.169-39.476 41.151-67.38 22.685c-26.27-17.387-41.324-41.819-48.027-71.761c-3.111-13.896-4.02-27.849-0.04-41.766 c3.1-10.845 7.828-20.714 16.567-28.452c12.544-11.107 31.741-14.384 47.014-7.024c15.793 7.6 28.9 18.2 38 33.6 C120.227 231.1 129.4 252.6 128.1 277.351z" id="path3103" fill-rule="evenodd" fill="#7A4177"/>
    <path clip-rule="evenodd" d="M469.483 171.615c0.92 16.005-2.584 31.994-10.46 47.2 c-5.69 10.949-14.964 18.105-26.189 21.736c-26.882 8.689-54.778 1.203-70.162-29.874c-5.297-10.706-8.641-22.163-8.472-34.449 c0.208-15.346-0.366-30.558 4.818-45.545c6.807-19.683 18.234-34.113 40.287-36.425c24.796-2.599 45.3 5.4 58.3 27.5 C466.49 136.7 470.3 153.2 469.5 171.615z" id="path3105" fill-rule="evenodd" fill="#DA294C"/>
    <path d="M 123.4 429.4 C 123.1 429.4 122.8 429.4 122.5 429.5 C 120.4 429.9 120 431.7 119.7 433.3 C 118.4 442 113.4 447.1 105.5 451.2 C 99.7 454.3 93.6 458.6 91.1 465.5 C 86.4 478.2 90.6 497.5 102.5 506.2 C 106.7 509.3 111.4 511.4 117.6 510.8 C 121.5 511.8 125.5 509.4 129.6 508.4 C 140.8 505.8 142.3 503.3 140.9 492.3 C 140.6 490.2 140.2 488.1 139.6 486 C 137.4 477.8 135.9 469.5 134.5 461 C 133 451.4 132.5 441.4 127.5 432.6 C 126.6 430.9 125.5 429.4 123.4 429.4 z M 112.6 457.2 C 115.9 457.3 119.2 459 121.8 462.3 C 127.1 469.2 130 477.2 130.2 487.5 C 129.9 489 129.7 492.1 128.7 494.8 C 125.7 503.3 117.5 505.6 110.1 500.1 C 100.1 492.7 96.1 475.2 101.8 464.2 C 104.3 459.4 108.4 457 112.6 457.2 z " id="path3107" style="fill:#221c1a;fill-opacity:1"/>
    <path d="M 247.2 428.4 C 246.7 428.4 246.2 428.4 245.7 428.5 C 241.1 428.2 236.5 429.2 232.1 431.2 C 224.3 434.9 224.2 435.3 225.8 443.8 C 228.4 457.6 232.7 471 233.7 485.1 C 234 488.9 234.5 492.8 235.7 496.4 C 236.6 499 237.3 502.8 241 503 C 245.2 503.2 245.8 499.1 245.9 496.6 C 246.3 488.8 250.8 484.5 257.3 481 C 263.1 477.8 266.5 472.1 269.1 466.1 C 275.6 451.1 263.2 428.2 247.2 428.4 z M 249 435.8 C 252.5 435.9 255.5 437.5 257.7 440.9 C 261 446 262.5 451.8 263.1 456.9 C 263.3 466.5 259.4 472.2 252.7 473 C 245.2 474 238.4 467.5 236.6 457.9 C 234.6 446.6 237.9 438.2 245.3 436.3 C 246.6 435.9 247.8 435.8 249 435.8 z " id="path3109" style="fill:#221c1a;fill-opacity:1"/>
    <path d="M 436.8 386.9 C 428.3 387.1 420.5 392.7 417.2 402.8 C 412.7 416.9 416.1 429.8 423.5 441.9 C 426.3 446.6 431.1 448.8 436.6 449.4 C 452.6 451.3 464.3 439.7 464.4 418.2 C 464.1 410.4 461 400.4 452.2 392.8 C 447.3 388.7 441.9 386.8 436.8 386.9 z M 435.9 396.8 C 441 396.6 445.3 398.1 448.7 402.5 C 453 408.3 455 414.6 454.7 418.8 C 454.3 428.6 454.4 435.8 446.2 438.8 C 440 441.2 433.4 437.7 427.7 430.1 C 422.4 423.1 420.7 415.4 423.2 407.1 C 424.8 402.2 427.6 397.8 433.7 397 C 434.5 396.9 435.2 396.9 435.9 396.8 z " id="path3111" style="fill:#221c1a;fill-opacity:1"/>
    <path style="fill:#221c1a;fill-rule:evenodd" d="m 301.3 416.3 c -4.5 -0.1 -8.8 1.4 -11.8 2.5 l 0 -0 c -1.6 0.8 -2.3 1.8 -2.5 1.9 -12.3 9.1 -16.1 30.4 -2.2 47.7 8.1 10.1 22 11.6 32.8 4.1 0.9 -0.6 2.1 -2.1 1.9 -2.9 -0.4 -2.1 -2.4 -2.1 -4.1 -1.5 -4.1 1.6 -8.5 2.3 -12.8 1.6 -5 -0.8 -9.1 -3 -10.4 -8.3 -1.2 -4.8 1.2 -8.2 4.6 -11.2 2.4 -2.1 5 -3.4 8.2 -3.5 2.6 -0 5.3 0.1 7.8 -0.3 9.6 -1.5 12.9 -8.4 8.7 -16.8 -2.7 -5.3 -7.2 -8.3 -12.1 -11.1 -2.6 -1.5 -5.4 -2.1 -8.1 -2.2 z M 298 423.6 c 6.2 -0.3 10.5 3.4 10.4 8.9 -0.1 5.6 -4.3 9.6 -9.9 9.6 -5.6 -0.1 -9.2 -3.2 -9.5 -8.3 -0.4 -5.9 3.2 -9.9 9.1 -10.2 z" id="path3113" inkscape:connector-curvature="0"/>
    <path clip-rule="evenodd" d="M488.058 436.503c-1.302 0-2.61 0.1-3.903-0.024 c-2.254-0.214-4.451-0.969-4.759-3.455c-0.318-2.526 1.526-3.721 3.866-4.205c0.846-0.173 1.786-0.229 2.51-0.637 c3.17-1.79 7.966-1.611 8.332-6.831c0.416-5.979-3.966-8.148-8.316-10.147c-4.286-1.973-9.066-3.036-13.108-5.379 c-7.02-4.074-9.156-12.682-5.285-18.763c4.376-6.881 15.433-10.239 21.644-6.539c2.052 1.2 1.6 3.2 0.3 4.2 c-1.622 1.303-3.829 1.885-5.759 2.825c-2.958 1.443-4.58 3.617-4.568 7.07c0.011 4 1.9 6.5 5.4 7.9 c3.175 1.3 6.5 2.1 9.8 3.154c11.528 3.8 13.9 7.5 12.4 18.677c-1.047 7.535-7.173 11.86-17.208 12.1 c-0.435 0.013-0.871 0.002-1.303 0.002C488.058 436.5 488.1 436.5 488.1 436.503z" id="path3115" fill-rule="evenodd" fill="#221C1A"/>
    <path clip-rule="evenodd" d="M367.852 412.178c-0.431-2.169 0.809-5.242 4.18-7.105 c7.939-4.396 15.996-8.533 25.568-7.993c2.19 0.1 4.4 0.1 6.2 1.496c1.686 1.3 3.4 3 2.7 5.3 c-0.643 2.224-2.663 3.322-4.988 3.262c-1.243-0.031-2.473-0.66-3.705-1.032c-5.962-1.782-8.918 1.522-10.791 6.4 c-3.456 8.918-5.04 18.099-2.552 27.502c1.116 4.2 1.5 8.4 1.2 12.649c-0.08 1.737-0.771 3.373-2.749 3.9 c-2.011 0.503-3.356-0.554-3.952-2.282C374.435 441 369.8 427.8 367.9 412.178z" id="path3117" fill-rule="evenodd" fill="#221C1A"/>
    <path clip-rule="evenodd" d="M338.647 441.581c0.457 2.9 1 5.8 1.4 8.8 c0.483 3.8 1 7.6 1.2 11.379c0.144 2.169-0.277 4.599-2.967 4.851c-1.718 0.159-3.09-1.429-3.723-3.076 c-1.824-4.777-3.952-9.493-5.18-14.424c-2.059-8.228-3.19-16.68-5.329-24.88c-1.223-4.703 0.676-7.515 4.207-9.616 c7.477-4.449 15.549-7.231 24.339-8.088c3.488-0.339 5.8 0.9 7.9 3.243c1.186 1.3 2.1 2.9 1.4 4.6 c-0.952 2.002-2.941 3.576-5.19 2.9c-3.781-1.132-7.6-2.906-10.928 0.265c-3.181 3.031-4.451 7.2-5.015 11.5 C340.189 433.2 338.2 437.2 338.6 441.581z" id="path3119" fill-rule="evenodd" fill="#221C1A"/>
    <path clip-rule="evenodd" d="M177.757 412.435c-0.043 10.504-4.69 15.6-13.342 14.6 c-6.713-0.747-12.438-8.508-13.467-18.257c-0.937-8.864 2.412-16.085 8.63-18.307c5.132-1.834 9.319-0.336 12.7 3.8 C175.473 398.3 177.8 405.8 177.8 412.435z" id="path3121" fill-rule="evenodd" fill="#221C1A"/>
    <path clip-rule="evenodd" d="M373.016 376.403c0.016 6.889-5.605 13.297-11.642 13.3 c-4.084-0.018-8.9-5.239-8.858-9.591c0.074-7.216 5.222-13.473 11.209-13.622C369.5 366.3 373 370.1 373 376.403z" id="path3123" fill-rule="evenodd" fill="#221C1A"/>
    <path clip-rule="evenodd" d="M223.574 407.941c0.284 6.442-5.262 12.652-11.585 13 c-4.379 0.212-8.729-4.187-8.984-9.095c-0.309-5.893 5.892-13.7 10.931-13.755C219.232 398 223.3 402.2 223.6 407.941z" id="path3125" fill-rule="evenodd" fill="#221C1A"/>
  </g>
</svg>
